<svg xmlns="http://www.w3.org/2000/svg" xmlns:xlink="http://www.w3.org/1999/xlink" viewBox="0 0 59.065 33" overflow="visible"><path d="M 29.075 27.326 C 31.624 24.391 33.126 20.609 33.126 16.566 C 33.126 7.434 25.678 0 16.531 0 C 7.448 0 0 7.435 0 16.5 C 0 24.913 6.272 31.826 14.505 32.87 L 14.505 27.065 C 12.349 26.674 10.389 25.565 8.951 24.13 C 6.991 22.174 5.815 19.5 5.815 16.5 C 5.815 13.565 6.991 10.826 8.951 8.87 C 10.911 6.913 13.591 5.74 16.596 5.74 C 19.536 5.74 22.28 6.913 24.24 8.87 C 26.2 10.826 27.377 13.5 27.377 16.5 C 27.377 19.435 26.2 22.174 24.24 24.13 C 22.724 25.641 20.79 26.663 18.687 27.065 L 18.687 33 L 35.217 33 L 35.217 27.326 Z M 37.242 27.326 L 49.852 15 C 50.179 14.674 50.636 14.218 50.963 13.826 C 51.355 13.435 51.747 12.978 52.008 12.522 C 52.27 12.065 52.597 11.544 52.858 11.087 C 53.119 10.565 53.185 10.109 53.185 9.457 C 53.185 8.805 53.054 8.217 52.793 7.696 C 52.531 7.174 52.205 6.718 51.813 6.392 C 51.42 6.065 50.833 5.739 50.31 5.544 C 49.722 5.348 49.134 5.218 48.48 5.218 C 47.108 5.218 45.997 5.608 45.083 6.392 C 44.168 7.174 43.645 8.218 43.449 9.587 L 37.699 9.131 C 37.83 7.631 38.157 6.261 38.745 5.152 C 39.321 4.061 40.097 3.087 41.032 2.282 C 42.012 1.631 43.122 0.978 44.429 0.652 C 45.671 0.262 47.043 0.065 48.546 0.065 C 50.048 0.065 51.42 0.261 52.662 0.652 C 53.903 0.978 55.014 1.631 55.994 2.348 C 56.844 3.131 57.628 4.108 58.15 5.218 C 58.673 6.392 59 7.761 59 9.326 C 59 11.413 58.542 13.109 57.562 14.609 C 56.551 16.17 55.343 17.595 53.969 18.848 L 44.56 27.326 L 59.065 27.326 L 59.065 33 L 37.242 33 Z" fill="rgb(61, 61, 61)"></path></svg>
